<svg enable-background="new 0 0 512 512" height="512" viewBox="0 0 512 512" width="512" xmlns="http://www.w3.org/2000/svg"><path d="m482 30h-90v120l90-60z" fill="#ffea90"/><path d="m482 90h-90v120l90-60z" fill="#ffbe4e"/><path d="m392 150v120l90-60v-60z" fill="#ff6358"/><path d="m392 413.213 90-90v-113.213h-90z" fill="#d63d52"/><path d="m362 0h-105-31l-151 467 347-15v-452z" fill="#173261"/><path d="m75 0c-24.813 0-45 20.187-45 45v422h196v-467z" fill="#234581"/><path d="m422 422h-196l-70 45 70 45h196v-30l-26-15 26-15z" fill="#091c40"/><path d="m75 422c-24.813 0-45 20.187-45 45s20.187 45 45 45h151v-90z" fill="#173261"/><path d="m422 452h-196l-30 15 30 15h196z" fill="#caf1ff"/><path d="m75 452c-8.271 0-15 6.729-15 15s6.729 15 15 15h151v-30z" fill="#fff"/></svg>